<svg xmlns="http://www.w3.org/2000/svg" xmlns:xlink="http://www.w3.org/1999/xlink" width="11.035" height="11.035" viewBox="0 0 11.035 11.035">
  <defs>
    <linearGradient id="linear-gradient" x1="1.119" y1="0.577" x2="0.5" y2="0.577" gradientUnits="objectBoundingBox">
      <stop offset="0" stop-color="#9cbee2"/>
      <stop offset="1" stop-color="#26538f"/>
    </linearGradient>
  </defs>
  <g id="instagram" transform="translate(0.2 0.2)">
    <g id="Group_1285" data-name="Group 1285" transform="translate(0)">
      <g id="Group_1284" data-name="Group 1284">
        <path id="Path_1209" data-name="Path 1209" d="M7.546,0H3.089A3.093,3.093,0,0,0,0,3.089V7.546a3.093,3.093,0,0,0,3.089,3.089H7.546a3.093,3.093,0,0,0,3.089-3.089V3.089A3.093,3.093,0,0,0,7.546,0ZM9.8,7.546A2.261,2.261,0,0,1,7.546,9.8H3.089A2.261,2.261,0,0,1,.831,7.546V3.089A2.261,2.261,0,0,1,3.089.831H7.546A2.261,2.261,0,0,1,9.8,3.089Z" stroke="#9cbee2" stroke-width="0.4" fill="url(#linear-gradient)"/>
      </g>
    </g>
    <g id="Group_1287" data-name="Group 1287" transform="translate(2.451 2.451)">
      <g id="Group_1286" data-name="Group 1286">
        <path id="Path_1210" data-name="Path 1210" d="M120.867,118a2.867,2.867,0,1,0,2.867,2.867A2.87,2.87,0,0,0,120.867,118Zm0,4.9a2.036,2.036,0,1,1,2.036-2.036A2.038,2.038,0,0,1,120.867,122.9Z" transform="translate(-118 -118)" stroke="#9cbee2" stroke-width="0.4" fill="url(#linear-gradient)"/>
      </g>
    </g>
    <g id="Group_1289" data-name="Group 1289" transform="translate(7.81 1.994)">
      <g id="Group_1288" data-name="Group 1288">
        <circle id="Ellipse_91" data-name="Ellipse 91" cx="0.415" cy="0.415" r="0.415" stroke="#9cbee2" stroke-width="0.4" fill="url(#linear-gradient)"/>
      </g>
    </g>
  </g>
</svg>
