<svg id="mouse" xmlns="http://www.w3.org/2000/svg" width="32.967" height="49.451" viewBox="0 0 32.967 49.451">
  <g id="Group_1291" data-name="Group 1291" transform="translate(0)">
    <g id="Group_1290" data-name="Group 1290">
      <path id="Path_1211" data-name="Path 1211" d="M51.553,0A16.5,16.5,0,0,0,35.069,16.476v16.5a16.484,16.484,0,0,0,32.967,0v-16.5A16.5,16.5,0,0,0,51.553,0ZM66.2,32.976a14.652,14.652,0,0,1-29.3,0v-16.5a14.652,14.652,0,0,1,29.3,0Z" transform="translate(-35.069 0)" fill="#26538f"/>
      <path id="Path_1212" data-name="Path 1212" d="M102.226,23.379a.916.916,0,0,0-.916.916v8.293a.916.916,0,1,0,1.832,0V24.295A.916.916,0,0,0,102.226,23.379Z" transform="translate(-85.742 -17.885)" fill="#26538f"/>
    </g>
  </g>
</svg>
