<svg xmlns="http://www.w3.org/2000/svg" xmlns:xlink="http://www.w3.org/1999/xlink" width="725.601" height="731.99" viewBox="0 0 725.601 731.99">
  <defs>
    <linearGradient id="linear-gradient" x1="1.13" y1="1.295" x2="0.236" y2="0.19" gradientUnits="objectBoundingBox">
      <stop offset="0" stop-color="#dae3fe"/>
      <stop offset="1" stop-color="#e9effd"/>
    </linearGradient>
    <linearGradient id="linear-gradient-2" x1="67.87" y1="0.5" x2="68.87" y2="0.5" gradientUnits="objectBoundingBox">
      <stop offset="0" stop-color="#febbba"/>
      <stop offset="1" stop-color="#ff928e"/>
    </linearGradient>
    <linearGradient id="linear-gradient-3" x1="78.629" y1="0.5" x2="79.629" y2="0.5" xlink:href="#linear-gradient-2"/>
    <linearGradient id="linear-gradient-4" x1="-3.594" y1="-0.492" x2="-3.249" y2="0.348" xlink:href="#linear-gradient-2"/>
    <linearGradient id="linear-gradient-5" x1="-14.223" y1="0.04" x2="-13.194" y2="1.767" xlink:href="#linear-gradient-2"/>
    <linearGradient id="linear-gradient-6" x1="-32.97" y1="1.716" x2="-34.846" y2="-0.451" xlink:href="#linear-gradient-2"/>
    <linearGradient id="linear-gradient-7" x1="10.5" y1="0.5" x2="11.5" y2="0.5" xlink:href="#linear-gradient-2"/>
    <linearGradient id="linear-gradient-8" x1="33.7" y1="0.5" x2="34.7" y2="0.5" xlink:href="#linear-gradient-2"/>
    <linearGradient id="linear-gradient-9" x1="26.557" y1="0.5" x2="27.557" y2="0.5" xlink:href="#linear-gradient-2"/>
    <linearGradient id="linear-gradient-10" x1="-26.208" y1="-3.103" x2="-26.53" y2="-4.169" xlink:href="#linear-gradient-2"/>
    <linearGradient id="linear-gradient-11" x1="-86.633" y1="-17.5" x2="-87.576" y2="-22.147" xlink:href="#linear-gradient-2"/>
    <linearGradient id="linear-gradient-12" x1="-12.984" y1="-3.086" x2="-14.078" y2="-1.884" xlink:href="#linear-gradient-2"/>
    <linearGradient id="linear-gradient-13" x1="-24.713" y1="-6.93" x2="-24.489" y2="-7.84" xlink:href="#linear-gradient-2"/>
    <linearGradient id="linear-gradient-14" x1="-14.464" y1="-6.728" x2="-13.254" y2="-5.564" xlink:href="#linear-gradient-2"/>
    <linearGradient id="linear-gradient-15" x1="-41.812" y1="-27.461" x2="-38.437" y2="-23.144" xlink:href="#linear-gradient-2"/>
    <linearGradient id="linear-gradient-16" x1="-17.556" y1="1.159" x2="-16.154" y2="0.023" xlink:href="#linear-gradient-2"/>
    <linearGradient id="linear-gradient-17" x1="1.501" y1="0.335" x2="4.023" y2="-0.003" xlink:href="#linear-gradient-2"/>
    <linearGradient id="linear-gradient-18" x1="-14.224" y1="-0.18" x2="-15.252" y2="1.397" gradientUnits="objectBoundingBox">
      <stop offset="0" stop-color="#42495b"/>
      <stop offset="1" stop-color="#1a0f91"/>
    </linearGradient>
    <linearGradient id="linear-gradient-19" x1="-22.613" y1="-1.848" x2="-19.643" y2="-4.024" xlink:href="#linear-gradient-2"/>
  </defs>
  <g id="Layer_2" data-name="Layer 2" transform="translate(0 -0.006)">
    <g id="Illustration" transform="translate(0 0.006)">
      <path id="Path_1910" data-name="Path 1910" d="M660.838,614.737c-14.619,15.393-28.454,25.319-39.384,33.159-128.48,92.187-280.507,65.315-312.825,58.742-47.71-9.691-139.936-28.422-206.613-106.834C1.143,481.185,16.852,294.286,95.1,170.914,109.423,148.345,185.014,23.093,338.693,3.005,431.674-9.146,540.08,15.368,618.581,81.138,783.378,219.194,771.635,498.094,660.838,614.737Z" transform="translate(-23.152 -0.006)" fill="url(#linear-gradient)"/>
      <path id="Path_1911" data-name="Path 1911" d="M2482,315.988a1,1,0,0,1-.917.207c-1.286-.348-2.583-.669-3.856-.957a1,1,0,0,1,.442-1.958c1.307.293,2.614.622,3.937.978a1,1,0,0,1,.709,1.231A1.017,1.017,0,0,1,2482,315.988Z" transform="translate(-1829.038 -231.363)" fill="#91b3fa"/>
      <path id="Path_1912" data-name="Path 1912" d="M2566.075,496.762c-1.778,1.529-3.631,3.009-5.508,4.4a1,1,0,1,1-1.195-1.613c2.162-1.6,4.28-3.317,6.308-5.1h0a1,1,0,0,1,1.307,1.516Q2566.546,496.357,2566.075,496.762Zm10.271-10.292a1,1,0,0,1-1.417-1.414c1.749-2.044,3.435-4.183,5.011-6.381a1,1,0,1,1,1.629,1.171c-1.608,2.235-3.328,4.429-5.116,6.515A.876.876,0,0,1,2576.347,486.47Zm12.081-17.777a1,1,0,0,1-1.542-1.231c1.263-2.387,2.434-4.849,3.485-7.32a1,1,0,0,1,1.849.784c-1.072,2.525-2.269,5.04-3.558,7.477a.958.958,0,0,1-.233.3Zm7.843-19.991a1,1,0,0,1-1.626-1.02c.7-2.6,1.289-5.26,1.759-7.916a1,1,0,1,1,1.979.35c-.481,2.711-1.087,5.432-1.8,8.086a.988.988,0,0,1-.3.51Zm3.189-21.225a.988.988,0,0,1-.69.243,1,1,0,0,1-.967-1.046c.1-2.69.081-5.419-.05-8.1a1.005,1.005,0,0,1,2.008-.1c.133,2.75.149,5.537.05,8.282A.989.989,0,0,1,2599.459,427.476Zm-1.61-21.419a1.031,1.031,0,0,1-.468.225,1,1,0,0,1-1.174-.8c-.5-2.651-1.122-5.31-1.83-7.9a1.008,1.008,0,1,1,1.945-.533c.735,2.646,1.367,5.362,1.88,8.068a1.011,1.011,0,0,1-.343.944Zm-6.308-20.538a1.042,1.042,0,0,1-.262.159,1,1,0,0,1-1.32-.523c-1.075-2.473-2.267-4.928-3.548-7.3a1,1,0,0,1,1.768-.954c1.307,2.421,2.525,4.928,3.621,7.453a1,1,0,0,1-.249,1.163Zm-10.719-18.627-.06.047a1,1,0,0,1-1.4-.214c-1.412-1.916-2.912-3.8-4.46-5.6-.207-.24-.416-.481-.625-.719a1,1,0,0,1,.092-1.417h0a1.007,1.007,0,0,1,1.409.1c.214.243.426.489.638.735,1.582,1.83,3.114,3.765,4.557,5.723a1.006,1.006,0,0,1-.125,1.349Zm-14.6-15.759a1.007,1.007,0,0,1-1.307,0c-2.036-1.754-4.183-3.446-6.368-5.03a1,1,0,1,1,1.177-1.626c2.235,1.616,4.423,3.344,6.5,5.134a1.006,1.006,0,0,1,.107,1.417Zm-17.714-12.125a1,1,0,0,1-1.127.125c-2.384-1.268-4.847-2.447-7.32-3.5a1,1,0,0,1,.784-1.848c2.523,1.08,5.038,2.282,7.472,3.579a1,1,0,0,1,.183,1.647Z" transform="translate(-1875.571 -246.467)" fill="#91b3fa"/>
      <path id="Path_1913" data-name="Path 1913" d="M2562.554,996.53a.92.92,0,0,1-.175.123c-1.2.651-2.413,1.276-3.6,1.859a1,1,0,0,1-.883-1.8c1.168-.573,2.353-1.184,3.531-1.83a1,1,0,0,1,1.132,1.644Z" transform="translate(-1888.776 -734.703)" fill="#91b3fa"/>
      <path id="Path_1914" data-name="Path 1914" d="M2275.2,1020.357a1,1,0,0,1-.959.2c-1.273-.405-2.567-.847-3.84-1.307a1,1,0,0,1,.687-1.887c1.247.455,2.512.886,3.762,1.281a1,1,0,0,1,.35,1.72Z" transform="translate(-1676.373 -751.351)" fill="#91b3fa"/>
      <path id="Path_1915" data-name="Path 1915" d="M2080.758,532.776a1,1,0,0,1-1.126.128c-2.387-1.263-4.755-2.643-7.04-4.107a1,1,0,0,1,1.082-1.691c2.24,1.433,4.559,2.787,6.9,4.023a1.006,1.006,0,0,1,.421,1.357,1.021,1.021,0,0,1-.233.29Zm-17.515-11.853a1,1,0,0,1-1.307,0c-2.068-1.754-4.081-3.618-5.987-5.534a1,1,0,0,1,1.427-1.414c1.864,1.877,3.835,3.7,5.859,5.419a1,1,0,0,1,.115,1.417.86.86,0,0,1-.1.112Zm-14.5-15.39a.431.431,0,0,1-.052.042,1,1,0,0,1-1.406-.2c-1.624-2.162-3.177-4.421-4.617-6.716a1,1,0,1,1,1.7-1.067c1.409,2.246,2.931,4.46,4.523,6.575a1.007,1.007,0,0,1-.141,1.365Zm-10.755-18.2a1.169,1.169,0,0,1-.243.154,1,1,0,0,1-1.328-.5c-1.114-2.465-2.133-5.011-3.035-7.566a1,1,0,1,1,1.9-.669c.881,2.5,1.882,5,2.97,7.411a1.006,1.006,0,0,1-.251,1.174Zm-6.512-20.1a1,1,0,0,1-1.637-.559c-.549-2.648-.991-5.354-1.307-8.041a1,1,0,1,1,1.995-.241c.319,2.63.753,5.281,1.289,7.877A1.01,1.01,0,0,1,2031.476,467.232Zm-1.99-21.042a1,1,0,0,1-1.657-.784c.042-2.708.2-5.446.471-8.136a1,1,0,1,1,2,.2c-.262,2.635-.418,5.315-.46,7.966a1,1,0,0,1-.35.748Zm2.661-20.961a1,1,0,0,1-1.631-1c.635-2.635,1.391-5.27,2.246-7.843a1.008,1.008,0,0,1,1.908.648c-.837,2.512-1.569,5.1-2.2,7.673a.992.992,0,0,1-.324.512Zm7.2-19.868a1,1,0,0,1-1.555-1.205c1.195-2.421,2.507-4.826,3.908-7.15a1,1,0,1,1,1.72,1.033c-1.37,2.28-2.659,4.635-3.83,7a.984.984,0,0,1-.243.314Zm11.361-17.824a1,1,0,0,1-1.435-1.391c1.7-2.118,3.506-4.183,5.367-6.136a1,1,0,1,1,1.454,1.383c-1.83,1.914-3.589,3.937-5.255,6.013a.915.915,0,0,1-.131.125Zm21.492-19.68a.694.694,0,0,1-.1.073c-2.206,1.472-4.376,3.056-6.447,4.706a1.006,1.006,0,0,1-1.412-.159.994.994,0,0,1,.159-1.412c2.115-1.684,4.332-3.3,6.585-4.8a1,1,0,0,1,1.213,1.6Z" transform="translate(-1497.702 -270.38)" fill="#91b3fa"/>
      <path id="Path_1916" data-name="Path 1916" d="M2240.208,336.5a.977.977,0,0,1-.261.162c-1.221.523-2.437,1.085-3.61,1.655a1,1,0,1,1-.876-1.807c1.2-.583,2.439-1.15,3.686-1.691a1,1,0,0,1,1.046,1.681Z" transform="translate(-1650.635 -247.234)" fill="#91b3fa"/>
      <path id="Path_1917" data-name="Path 1917" d="M2170.52,396.2a1.153,1.153,0,0,0-.936.957l-2.172,13.869a61.116,61.116,0,0,0-16.687,10.671l-13.492-3.83a1.15,1.15,0,0,0-1.263.45l-9.625,13.8a1.15,1.15,0,0,0,.013,1.339l8.264,11.335a61.138,61.138,0,0,0-4.24,19.346l-12.258,6.836a1.156,1.156,0,0,0-.573,1.21l2.959,16.574a1.153,1.153,0,0,0,.957.936l13.856,2.172A61.077,61.077,0,0,0,2146,508.559l-3.822,13.495a1.153,1.153,0,0,0,.45,1.26l13.814,9.628a1.155,1.155,0,0,0,1.338-.016l11.333-8.258a61.149,61.149,0,0,0,19.345,4.24l6.844,12.263a1.155,1.155,0,0,0,1.21.573l16.566-2.959a1.158,1.158,0,0,0,.939-.959l2.172-13.856a61.131,61.131,0,0,0,16.687-10.674l13.495,3.833a1.158,1.158,0,0,0,1.26-.45l9.628-13.819a1.156,1.156,0,0,0-.016-1.339l-8.264-11.335a61.053,61.053,0,0,0,4.238-19.346L2265.475,464a1.15,1.15,0,0,0,.572-1.208l-2.959-16.574a1.153,1.153,0,0,0-.957-.936l-13.856-2.172a61.138,61.138,0,0,0-10.674-16.689l3.832-13.492a1.153,1.153,0,0,0-.449-1.26l-13.814-9.628a1.155,1.155,0,0,0-1.338.013L2214.5,410.32a61.215,61.215,0,0,0-19.345-4.238l-6.836-12.258a1.153,1.153,0,0,0-1.21-.575Z" transform="translate(-1563.954 -290.432)" fill="#9cbee2"/>
      <path id="Path_1918" data-name="Path 1918" d="M2365.971,643.414a16.436,16.436,0,1,1,4.106-19.493A16.5,16.5,0,0,1,2365.971,643.414Zm-19.542-22.655a13.409,13.409,0,0,0-3.791,5.432h0a13.442,13.442,0,1,0,7.045-7.5A13.58,13.58,0,0,0,2346.43,620.759Zm-5.2,4.9Z" transform="translate(-1727.373 -453.882)" fill="#bdd0fb"/>
      <path id="Path_1919" data-name="Path 1919" d="M2310.484,591.816a42.13,42.13,0,0,1-62.029-56.042q.3-.431.617-.86a42.487,42.487,0,0,1,4.658-5.338c.2-.193.4-.382.6-.57l2.052,2.206a39.523,39.523,0,0,0-5.458,6.293l-.044.065a39.114,39.114,0,1,0,34.864-16.726l.206-3a42.125,42.125,0,0,1,24.535,73.976Z" transform="translate(-1655.065 -382.465)" fill="#bdd0fb"/>
      <path id="Path_1920" data-name="Path 1920" d="M2184.921,38.588a.6.6,0,0,1-.552.125c-.771-.209-1.553-.4-2.316-.575a.6.6,0,0,1,.261-1.179c.785.178,1.569.374,2.369.588a.6.6,0,0,1,.424.74.583.583,0,0,1-.186.3Z" transform="translate(-1611.258 -27.288)" fill="#91b3fa"/>
      <path id="Path_1921" data-name="Path 1921" d="M2235.465,147.195c-1.067.918-2.18,1.806-3.31,2.643a.6.6,0,0,1-.719-.97c1.307-.962,2.573-1.995,3.793-3.069h0a.6.6,0,0,1,.784.912C2235.842,146.871,2235.653,147.033,2235.465,147.195Zm6.172-6.185a.6.6,0,0,1-.85-.852c1.046-1.229,2.065-2.52,3.011-3.835a.6.6,0,1,1,.98.706c-.967,1.341-2,2.659-3.077,3.921a.54.54,0,0,1-.065.06Zm7.262-10.679a.6.6,0,0,1-.926-.74c.758-1.435,1.461-2.915,2.092-4.4a.6.6,0,0,1,1.111.471c-.646,1.519-1.365,3.033-2.138,4.5a.624.624,0,0,1-.138.175Zm4.721-12.026a.6.6,0,0,1-.549.125.606.606,0,0,1-.428-.74c.421-1.569.784-3.161,1.046-4.758a.6.6,0,0,1,1.189.212c-.29,1.629-.654,3.265-1.082,4.86a.591.591,0,0,1-.175.311Zm1.916-12.763a.6.6,0,0,1-1-.481c.057-1.616.05-3.255-.029-4.876a.6.6,0,1,1,1.205-.058c.078,1.652.089,3.328.029,4.967a.6.6,0,0,1-.209.458Zm-.97-12.875a.586.586,0,0,1-.28.136.6.6,0,0,1-.706-.481c-.3-1.595-.675-3.192-1.106-4.75a.6.6,0,0,1,1.161-.322c.444,1.589.823,3.221,1.132,4.847a.6.6,0,0,1-.2.58Zm-3.791-12.342a.593.593,0,0,1-.152.094.6.6,0,0,1-.784-.311c-.646-1.488-1.362-2.962-2.13-4.387a.6.6,0,0,1,1.061-.575c.784,1.456,1.519,2.962,2.178,4.481a.606.606,0,0,1-.173.708Zm-6.436-11.2-.037.029a.6.6,0,0,1-.842-.128c-.85-1.153-1.751-2.285-2.682-3.367-.123-.144-.248-.29-.374-.431a.6.6,0,0,1,.055-.852h0a.606.606,0,0,1,.847.06c.128.146.261.293.382.442.952,1.106,1.872,2.261,2.74,3.438a.6.6,0,0,1-.089.821Zm-8.776-9.471a.6.6,0,0,1-.784,0c-1.226-1.046-2.515-2.073-3.83-3.022a.6.6,0,0,1,.708-.98c1.344.972,2.659,2.01,3.908,3.087a.606.606,0,0,1,.063.852.719.719,0,0,1-.065.073Zm-10.658-7.291a.6.6,0,0,1-.677.073c-1.433-.763-2.912-1.472-4.4-2.1a.6.6,0,0,1,.473-1.111c1.516.648,3.027,1.373,4.491,2.152a.6.6,0,0,1,.261.816.66.66,0,0,1-.152.186Z" transform="translate(-1639.239 -36.32)" fill="#91b3fa"/>
      <path id="Path_1922" data-name="Path 1922" d="M2233.5,447.631a.527.527,0,0,1-.107.073c-.719.392-1.448.766-2.167,1.116a.6.6,0,0,1-.523-1.082c.7-.345,1.417-.714,2.123-1.1a.6.6,0,0,1,.682.988Z" transform="translate(-1647.326 -329.827)" fill="#91b3fa"/>
      <path id="Path_1923" data-name="Path 1923" d="M2060.671,461.978a.6.6,0,0,1-.578.12c-.766-.243-1.542-.51-2.308-.784a.6.6,0,0,1,.413-1.135c.75.261,1.511.523,2.261.769a.6.6,0,0,1,.392.758.59.59,0,0,1-.18.272Z" transform="translate(-1519.543 -339.855)" fill="#91b3fa"/>
      <path id="Path_1924" data-name="Path 1924" d="M1943.763,168.948a.6.6,0,0,1-.677.076c-1.432-.758-2.857-1.587-4.23-2.468a.6.6,0,0,1,.648-1.017c1.346.863,2.743,1.676,4.146,2.418a.6.6,0,0,1,.261.816A.614.614,0,0,1,1943.763,168.948Zm-10.522-7.124a.606.606,0,0,1-.784,0c-1.242-1.046-2.452-2.175-3.6-3.328a.6.6,0,0,1,.857-.85c1.122,1.127,2.306,2.225,3.521,3.257a.6.6,0,0,1,.068.85A.534.534,0,0,1,1933.24,161.824Zm-8.713-9.249-.031.024a.6.6,0,0,1-.844-.118c-.978-1.307-1.911-2.659-2.776-4.039a.6.6,0,1,1,1.022-.641c.847,1.352,1.762,2.68,2.719,3.953A.607.607,0,0,1,1924.527,152.575Zm-6.465-10.938a.606.606,0,0,1-.944-.212c-.669-1.482-1.281-3.012-1.83-4.546a.6.6,0,1,1,1.14-.4c.523,1.5,1.129,3,1.786,4.444A.607.607,0,0,1,1918.062,141.637Zm-3.921-12.086a.615.615,0,0,1-.261.131.6.6,0,0,1-.711-.468c-.329-1.592-.6-3.218-.784-4.834a.6.6,0,1,1,1.2-.144c.191,1.569.45,3.174.784,4.734a.607.607,0,0,1-.225.58Zm-1.195-12.648a.617.617,0,0,1-.4.146.6.6,0,0,1-.594-.614c.024-1.629.12-3.273.282-4.889a.6.6,0,1,1,1.2.12c-.157,1.569-.261,3.192-.277,4.787a.607.607,0,0,1-.206.45Zm1.6-12.6a.6.6,0,0,1-.98-.6c.382-1.584.837-3.168,1.352-4.706a.6.6,0,1,1,1.145.382c-.5,1.511-.949,3.061-1.323,4.612a.6.6,0,0,1-.191.311Zm4.334-11.939a.6.6,0,0,1-.936-.724c.719-1.454,1.508-2.9,2.353-4.3a.608.608,0,1,1,1.046.622c-.823,1.37-1.6,2.784-2.3,4.209a.591.591,0,0,1-.162.191Zm6.828-10.718a.6.6,0,0,1-.863-.837c1.022-1.273,2.107-2.512,3.226-3.686a.6.6,0,1,1,.873.831c-1.1,1.15-2.157,2.353-3.158,3.61A.459.459,0,0,1,1925.706,81.648Zm12.922-11.827a.5.5,0,0,1-.057.047c-1.328.884-2.633,1.83-3.877,2.826a.6.6,0,1,1-.75-.944c1.271-1.012,2.614-1.984,3.958-2.876a.6.6,0,0,1,.727.959Z" transform="translate(-1412.117 -50.801)" fill="#91b3fa"/>
      <path id="Path_1925" data-name="Path 1925" d="M2039.685,50.9a.618.618,0,0,1-.154.1c-.732.319-1.464.654-2.17,1a.6.6,0,0,1-.523-1.088c.722-.348,1.467-.69,2.214-1.017a.6.6,0,0,1,.635,1.012Z" transform="translate(-1504.12 -36.809)" fill="#91b3fa"/>
      <path id="Path_1926" data-name="Path 1926" d="M1997.7,86.782a.7.7,0,0,0-.565.575l-1.307,8.334a36.724,36.724,0,0,0-10.031,6.415l-8.1-2.3a.693.693,0,0,0-.758.261l-5.786,8.3a.69.69,0,0,0,0,.805l4.967,6.81a36.815,36.815,0,0,0-2.549,11.631l-7.367,4.11a.693.693,0,0,0-.345.727l1.778,9.96a.7.7,0,0,0,.575.565l8.334,1.307a36.859,36.859,0,0,0,6.415,10.031l-2.3,8.1a.7.7,0,0,0,.261.758l8.3,5.785a.69.69,0,0,0,.805,0l6.813-4.967a36.812,36.812,0,0,0,11.628,2.549l4.109,7.367a.693.693,0,0,0,.727.345l9.963-1.78a.687.687,0,0,0,.562-.575l1.307-8.334a36.781,36.781,0,0,0,10.044-6.418l8.1,2.3a.693.693,0,0,0,.758-.261l5.788-8.3a.7.7,0,0,0,0-.805l-4.967-6.813a36.674,36.674,0,0,0,2.549-11.631l7.362-4.1a.693.693,0,0,0,.345-.727l-1.778-9.963a.69.69,0,0,0-.575-.562l-8.334-1.307a36.737,36.737,0,0,0-6.415-10.028l2.3-8.1a.693.693,0,0,0-.261-.758l-8.3-5.788a.7.7,0,0,0-.805,0l-6.813,4.967a36.653,36.653,0,0,0-11.628-2.549l-4.11-7.367a.693.693,0,0,0-.727-.345Z" transform="translate(-1451.925 -62.772)" fill="#9cbee2"/>
      <path id="Path_1927" data-name="Path 1927" d="M2115.383,235.553a9.84,9.84,0,1,1,1.472-13.322,9.933,9.933,0,0,1-1.472,13.322Zm-11.743-13.612a8.023,8.023,0,0,0-2.277,3.265h0a8.033,8.033,0,1,0,2.277-3.265Zm-3.137,2.944Z" transform="translate(-1550.353 -161.203)" fill="#bdd0fb"/>
      <path id="Path_1928" data-name="Path 1928" d="M2081.794,204.376A25.324,25.324,0,0,1,2044.5,170.7l.371-.523a25.691,25.691,0,0,1,2.8-3.213l.358-.342,1.234,1.325a23.767,23.767,0,0,0-3.278,3.783l-.029.039a23.5,23.5,0,1,0,20.951-10.052l.125-1.806a25.33,25.33,0,0,1,14.758,44.466Z" transform="translate(-1506.656 -118.107)" fill="#bdd0fb"/>
      <path id="Path_1929" data-name="Path 1929" d="M167.093,1288.677a11.409,11.409,0,0,0,11.377,11.38H793.929a11.409,11.409,0,0,0,11.38-11.369L810.43,935c0-6.253-7.367-18.462-20.87-17.544L188.067,901.881a28.676,28.676,0,0,0-29.429,29.332Z" transform="translate(-117.16 -666.1)" fill="#26538f"/>
      <path id="Path_1930" data-name="Path 1930" d="M209.737,1315.872A10.8,10.8,0,0,0,220.5,1326.64H810.493a10.8,10.8,0,0,0,10.766-10.768l4.834-321.081c-.57-19.322-17.516-26.265-27.779-25.855L221.836,953.47A20.159,20.159,0,0,0,201.154,974.1Z" transform="translate(-148.563 -704.205)" fill="#aeceea"/>
      <path id="Path_1931" data-name="Path 1931" d="M2544.313,1673.786h-.016a1.568,1.568,0,0,1-1.568-1.6l.382-26.041a1.569,1.569,0,0,1,1.569-1.553h.023a1.569,1.569,0,0,1,1.569,1.6l-.382,26.038A1.569,1.569,0,0,1,2544.313,1673.786Z" transform="translate(-1877.993 -1214.653)" fill="#bdd0fb"/>
      <path id="Path_1932" data-name="Path 1932" d="M1962.808,1146.583h-.024a1.569,1.569,0,0,1-1.569-1.6l1.464-99.731c-.026-5.924-1.83-10.653-5.344-14.026-6.57-6.3-16.993-5.974-17.44-5.953l-184.235-4.941a1.569,1.569,0,0,1-1.535-1.618,1.514,1.514,0,0,1,1.621-1.535l184.146,4.941c1.145-.068,12.25-.261,19.646,6.826,4.159,3.987,6.274,9.479,6.316,16.321l-1.464,99.763A1.569,1.569,0,0,1,1962.808,1146.583Z" transform="translate(-1295.553 -751.261)" fill="#bdd0fb"/>
      <rect id="Rectangle_173" data-name="Rectangle 173" width="725.601" height="31.076" rx="5.65" transform="translate(725.601 663.307) rotate(180)" fill="#26538f"/>
      <path id="Path_1933" data-name="Path 1933" d="M690.89,336.464A39.214,39.214,0,0,1,730.1,297.25h333.444a34.549,34.549,0,0,1,34.508,32.794l24.61,483.428a25.476,25.476,0,0,1-24.977,26.767l-382.178,6.946a24.179,24.179,0,0,1-24.621-24.174Z" transform="translate(-510.273 -219.543)" fill="#26538f"/>
      <path id="Path_1934" data-name="Path 1934" d="M804.615,2108.629h0l-42.774-.554a26.372,26.372,0,0,1-25.931-26.268v-64.572a.915.915,0,0,1,1.83,0v64.572a24.541,24.541,0,0,0,24.13,24.443l42.764.552a.915.915,0,0,1,0,1.83Z" transform="translate(-543.524 -1489.203)" fill="#91b3fa"/>
      <path id="Path_1935" data-name="Path 1935" d="M736.822,1912.135a.912.912,0,0,1-.912-.912v-10.457a.915.915,0,0,1,1.83,0v10.457a.913.913,0,0,1-.918.912Z" transform="translate(-543.524 -1403.182)" fill="#91b3fa"/>
      <path id="Path_1936" data-name="Path 1936" d="M795.389,293.34a11.388,11.388,0,0,1,12.917-11.362c45.54,6.175,202.119,25.288,331.58,15.335a10.533,10.533,0,0,1,11.341,9.934l25.808,485.588a12.114,12.114,0,0,1-11.385,12.745c-54.45,3.223-278.68,15.686-358.676,7.3a9.6,9.6,0,0,1-8.593-9.5Z" transform="translate(-587.454 -208.187)" fill="#7d97f4"/>
      <path id="Path_1937" data-name="Path 1937" d="M815.9,341.108a10.959,10.959,0,0,1,12.433-10.93c43.82,5.942,194.5,24.313,319.094,14.757a10.136,10.136,0,0,1,10.915,9.558l24.835,467.3a11.665,11.665,0,0,1-10.959,12.266c-52.4,3.1-268.192,15.087-345.161,7.025a9.239,9.239,0,0,1-8.269-9.15Z" transform="translate(-602.602 -243.789)" fill="#aeceea"/>
      <g id="Group_1551" data-name="Group 1551" transform="translate(404.968 133.134)" opacity="0.6">
        <path id="Path_1939" data-name="Path 1939" d="M1672.346,518.2a3.55,3.55,0,0,0,3.809-3.362,3.886,3.886,0,0,0-4.005-3.43l-120.256-2.144a2.544,2.544,0,0,0-2.614,3.616l.575,1.634a5.927,5.927,0,0,0,5.2,3.686Z" transform="translate(-1549.075 -509.267)" fill="#fff"/>
      </g>
      <g id="Group_1552" data-name="Group 1552" transform="translate(404.963 151.811)" opacity="0.6">
        <path id="Path_1940" data-name="Path 1940" d="M1551.874,580.708a2.545,2.545,0,0,0-2.614,3.616l.575,1.634a5.922,5.922,0,0,0,5.2,3.686h117.283a3.55,3.55,0,0,0,3.809-3.362,3.886,3.886,0,0,0-4.005-3.43Z" transform="translate(-1549.055 -580.708)" fill="#fff"/>
      </g>
      <g id="Group_1553" data-name="Group 1553" transform="translate(404.963 170.759)" opacity="0.6">
        <path id="Path_1941" data-name="Path 1941" d="M1551.874,653.188a2.545,2.545,0,0,0-2.614,3.616l.575,1.634a5.922,5.922,0,0,0,5.2,3.686h117.283a3.55,3.55,0,0,0,3.809-3.362,3.886,3.886,0,0,0-4.005-3.43Z" transform="translate(-1549.055 -653.188)" fill="#fff"/>
      </g>
      <g id="Group_1554" data-name="Group 1554" transform="translate(255.573 262.093)" opacity="0.6">
        <path id="Path_1942" data-name="Path 1942" d="M1261.959,1011.539c2.149,0,3.809-1.514,3.686-3.362a4.031,4.031,0,0,0-4.128-3.4l-281.741-2.22c-2.149-.018-2.81,1.344-1.472,3.025l2.3,2.891a9.182,9.182,0,0,0,6.34,3.056Z" transform="translate(-977.611 -1002.559)" fill="#fff"/>
      </g>
      <g id="Group_1555" data-name="Group 1555" transform="translate(255.573 286.058)" opacity="0.6">
        <path id="Path_1943" data-name="Path 1943" d="M979.776,1094.23c-2.149-.016-2.81,1.344-1.472,3.027l2.3,2.876a9.184,9.184,0,0,0,6.34,3.059h275.02c2.149,0,3.809-1.514,3.686-3.362a4.031,4.031,0,0,0-4.128-3.4Z" transform="translate(-977.611 -1094.23)" fill="#fff"/>
      </g>
      <path id="Path_1944" data-name="Path 1944" d="M1028.282,1469.23h-.065l-23.79-.228a6.414,6.414,0,0,1-6.536-5.437l-2.091-19.949a4.355,4.355,0,0,1,1.025-3.262,5.229,5.229,0,0,1,3.639-1.793h0c2-.139,4.823-.379,7.811-.633,6.274-.523,14.117-1.2,18.52-1.258a6.645,6.645,0,0,1,6.658,4.659c1.239,4.58,1.129,13.249.894,22.482A5.833,5.833,0,0,1,1028.282,1469.23Zm-27.669-28.848a3.367,3.367,0,0,0-2.353,1.148,2.518,2.518,0,0,0-.607,1.9l2.091,19.949a4.573,4.573,0,0,0,4.724,3.8l23.79.23h.047a4.052,4.052,0,0,0,4.264-3.639c.233-9.095.343-17.62-.831-21.96a4.9,4.9,0,0,0-4.873-3.307c-4.34.055-12.13.717-18.389,1.25-2.993.261-5.822.5-7.843.635Z" transform="translate(-735.456 -1061.089)" fill="#fff"/>
      <path id="Path_1945" data-name="Path 1945" d="M1015.39,1454.477c5-.34,15.853-1.443,21-1.508a4.607,4.607,0,0,1,4.609,3.184c.994,3.676.863,11,.69,17.759a3.954,3.954,0,0,1-4.183,3.618l-19-.18a4.4,4.4,0,0,1-4.494-3.691l-1.671-15.947A3.093,3.093,0,0,1,1015.39,1454.477Z" transform="translate(-747.676 -1073.126)" fill="#fff" opacity="0.6"/>
      <g id="Group_1556" data-name="Group 1556" transform="translate(313.515 387.484)" opacity="0.6">
        <path id="Path_1946" data-name="Path 1946" d="M1199.446,1489.611a5.9,5.9,0,0,0,5.751,4.4l220.008-1.874a4.465,4.465,0,1,0-.018-8.93l-220.013-1a5.9,5.9,0,0,0-5.728,7.411Z" transform="translate(-1199.25 -1482.2)" fill="#fff"/>
      </g>
      <path id="Path_1947" data-name="Path 1947" d="M1028.282,1664.178h-.065l-23.79-.227a6.414,6.414,0,0,1-6.536-5.438l-2.091-19.949a4.347,4.347,0,0,1,1.025-3.26,5.228,5.228,0,0,1,3.639-1.8h0c2-.136,4.823-.376,7.811-.633,6.274-.536,14.117-1.2,18.519-1.255h.1a6.623,6.623,0,0,1,6.562,4.659c1.239,4.58,1.129,13.249.894,22.483A5.838,5.838,0,0,1,1028.282,1664.178Zm-27.669-28.848a3.378,3.378,0,0,0-2.353,1.148,2.518,2.518,0,0,0-.606,1.9l2.091,19.949a4.577,4.577,0,0,0,4.724,3.8l23.79.227h.047a4.052,4.052,0,0,0,4.264-3.639c.233-9.1.343-17.618-.831-21.96a4.877,4.877,0,0,0-4.873-3.307c-4.34.055-12.13.719-18.389,1.25-2.993.261-5.822.5-7.843.635Z" transform="translate(-735.456 -1205.074)" fill="#fff"/>
      <path id="Path_1948" data-name="Path 1948" d="M1015.39,1649.427c5-.342,15.853-1.446,21-1.508A4.6,4.6,0,0,1,1041,1651.1c.994,3.676.863,11,.69,17.759a3.958,3.958,0,0,1-4.183,3.621l-19-.183a4.394,4.394,0,0,1-4.494-3.691l-1.671-15.947A3.091,3.091,0,0,1,1015.39,1649.427Z" transform="translate(-747.676 -1217.111)" fill="#fff" opacity="0.6"/>
      <g id="Group_1557" data-name="Group 1557" transform="translate(313.516 438.449)" opacity="0.6">
        <path id="Path_1949" data-name="Path 1949" d="M1199.448,1684.559a5.9,5.9,0,0,0,5.751,4.4l220.008-1.874a4.465,4.465,0,1,0-.018-8.93l-220.013-1a5.9,5.9,0,0,0-5.728,7.409Z" transform="translate(-1199.253 -1677.15)" fill="#fff"/>
      </g>
      <path id="Path_1950" data-name="Path 1950" d="M1028.282,1859.121h-.065l-23.79-.23a6.41,6.41,0,0,1-6.536-5.435L995.8,1833.5a4.347,4.347,0,0,1,1.025-3.26,5.229,5.229,0,0,1,3.639-1.8h0c2-.136,4.823-.376,7.811-.63,6.274-.523,14.117-1.2,18.519-1.257h.1a6.623,6.623,0,0,1,6.562,4.659c1.239,4.58,1.129,13.249.894,22.483A5.839,5.839,0,0,1,1028.282,1859.121Zm-27.669-28.851a3.4,3.4,0,0,0-2.353,1.148,2.523,2.523,0,0,0-.607,1.9l2.091,19.952a4.573,4.573,0,0,0,4.724,3.8l23.79.228h.047a4.052,4.052,0,0,0,4.264-3.639c.233-9.1.343-17.618-.831-21.96a4.869,4.869,0,0,0-4.873-3.31c-4.34.055-12.13.719-18.389,1.252-2.993.261-5.822.494-7.843.633Z" transform="translate(-735.456 -1349.052)" fill="#fff"/>
      <path id="Path_1951" data-name="Path 1951" d="M1015.39,1844.367c5-.342,15.853-1.443,21-1.508a4.607,4.607,0,0,1,4.609,3.184c.994,3.66.863,11,.69,17.759a3.957,3.957,0,0,1-4.183,3.618l-19-.183a4.391,4.391,0,0,1-4.494-3.691l-1.671-15.947A3.091,3.091,0,0,1,1015.39,1844.367Z" transform="translate(-747.676 -1361.089)" fill="#fff" opacity="0.6"/>
      <g id="Group_1558" data-name="Group 1558" transform="translate(313.516 489.411)" opacity="0.6">
        <path id="Path_1952" data-name="Path 1952" d="M1199.448,1879.5a5.906,5.906,0,0,0,5.751,4.4l220.008-1.877a4.465,4.465,0,0,0-.018-8.928l-220.013-1a5.9,5.9,0,0,0-5.728,7.409Z" transform="translate(-1199.253 -1872.09)" fill="#fff"/>
      </g>
      <path id="Path_1953" data-name="Path 1953" d="M1028.282,2054.06h-.065l-23.79-.228a6.414,6.414,0,0,1-6.536-5.437l-2.091-19.949a4.358,4.358,0,0,1,1.025-3.263,5.229,5.229,0,0,1,3.639-1.8h0c2-.136,4.823-.376,7.811-.63,6.274-.523,14.117-1.2,18.519-1.257h.1a6.62,6.62,0,0,1,6.562,4.659c1.239,4.58,1.129,13.249.894,22.483A5.839,5.839,0,0,1,1028.282,2054.06Zm-27.669-28.851a3.38,3.38,0,0,0-2.353,1.15,2.515,2.515,0,0,0-.606,1.9l2.091,19.949a4.573,4.573,0,0,0,4.724,3.8l23.79.228h.047a4.052,4.052,0,0,0,4.264-3.636c.233-9.095.343-17.62-.831-21.96a4.858,4.858,0,0,0-4.873-3.307c-4.34.052-12.13.716-18.389,1.25-2.993.261-5.822.5-7.843.633Z" transform="translate(-735.456 -1493.029)" fill="#fff"/>
      <path id="Path_1954" data-name="Path 1954" d="M1015.39,2039.307c5-.34,15.853-1.443,21-1.508a4.607,4.607,0,0,1,4.609,3.184c.994,3.673.863,11,.69,17.759a3.956,3.956,0,0,1-4.183,3.618l-19-.183a4.392,4.392,0,0,1-4.494-3.689l-1.671-15.947A3.093,3.093,0,0,1,1015.39,2039.307Z" transform="translate(-747.676 -1505.067)" fill="#fff" opacity="0.6"/>
      <g id="Group_1559" data-name="Group 1559" transform="translate(313.513 540.366)" opacity="0.6">
        <path id="Path_1955" data-name="Path 1955" d="M1199.44,2074.419h0a5.9,5.9,0,0,0,5.751,4.4l220.016-1.882a4.465,4.465,0,0,0-.018-8.928L1205.176,2067a5.9,5.9,0,0,0-5.735,7.419Z" transform="translate(-1199.242 -2067)" fill="#fff"/>
      </g>
      <path id="Path_1956" data-name="Path 1956" d="M1020.287,1299.61h-.065l-23.777-.227a6.414,6.414,0,0,1-6.536-5.438L987.818,1274a4.337,4.337,0,0,1,1.025-3.263,5.229,5.229,0,0,1,3.636-1.8h0c2.005-.136,4.826-.376,7.811-.63,6.29-.523,14.117-1.2,18.522-1.257h.094a6.62,6.62,0,0,1,6.562,4.659c1.239,4.577,1.132,13.249.9,22.483A5.858,5.858,0,0,1,1020.287,1299.61Zm-27.669-28.851a3.4,3.4,0,0,0-2.353,1.15,2.523,2.523,0,0,0-.6,1.9l2.091,19.949a4.573,4.573,0,0,0,4.724,3.8l23.79.227h.047a4.048,4.048,0,0,0,4.264-3.636c.233-9.1.345-17.62-.831-21.96a4.863,4.863,0,0,0-4.873-3.31c-4.337.055-12.128.719-18.386,1.252-3,.261-5.825.5-7.843.633Z" transform="translate(-729.56 -935.812)" fill="#fff"/>
      <path id="Path_1957" data-name="Path 1957" d="M1007.337,1284.857c4.993-.34,15.85-1.443,21-1.508a4.6,4.6,0,0,1,4.606,3.184c.993,3.66.863,11,.69,17.759a3.956,3.956,0,0,1-4.183,3.618l-19-.183a4.388,4.388,0,0,1-4.494-3.689l-1.671-15.947A3.1,3.1,0,0,1,1007.337,1284.857Z" transform="translate(-741.728 -947.849)" fill="#fff" opacity="0.6"/>
      <g id="Group_1560" data-name="Group 1560" transform="translate(311.424 343.138)" opacity="0.6">
        <path id="Path_1958" data-name="Path 1958" d="M1191.446,1319.981h0a5.906,5.906,0,0,0,5.751,4.4l220.008-1.877a4.465,4.465,0,0,0-.016-8.928l-220.016-1a5.9,5.9,0,0,0-5.728,7.411Z" transform="translate(-1191.25 -1312.57)" fill="#fff"/>
      </g>
      <path id="Path_1959" data-name="Path 1959" d="M1443.566,24.489c-12.044-8.379-22.516-8.214-29.889-6.047A14.705,14.705,0,0,0,1403.22,33.9l3.182,34.7,37.833,3.357S1467.186,40.924,1443.566,24.489Zm-16.637,28a9.435,9.435,0,1,1,9.432-9.433,9.435,9.435,0,0,1-9.432,9.433Z" transform="translate(-1036.335 -12.692)" fill="#42495b"/>
      <path id="Path_1960" data-name="Path 1960" d="M1423.438,68.407a.912.912,0,0,1-.907-.831l-.507-5.527a.919.919,0,0,1,1.83-.165l.5,5.527a.91.91,0,0,1-.826.991Zm-.991-10.831a.915.915,0,0,1-.91-.831l-.384-4.183a14.038,14.038,0,0,1,9.952-14.729,28.255,28.255,0,0,1,13.827-.567.913.913,0,0,1-.366,1.788,26.48,26.48,0,0,0-12.943.523,12.209,12.209,0,0,0-8.651,12.81l.384,4.183a.915.915,0,0,1-.826.993Z" transform="translate(-1049.584 -27.082)" fill="#91b3fa"/>
      <path id="Path_1961" data-name="Path 1961" d="M1218.09,220.36V202.922a10.648,10.648,0,0,1,11.011-10.64l120.293,4.1a10.358,10.358,0,0,1,9.984,9.728l1,16.765Z" transform="translate(-899.65 -142.012)" fill="#42495b"/>
      <path id="Path_1962" data-name="Path 1962" d="M1372.469,212.24H1367.3a.915.915,0,1,1,0-1.83h5.174a.915.915,0,1,1,0,1.83Z" transform="translate(-1009.173 -155.405)" fill="#91b3fa"/>
      <path id="Path_1963" data-name="Path 1963" d="M1240.415,228.291a.915.915,0,0,1-.915-.912V220.32a9.9,9.9,0,0,1,9.892-9.89h19.019a.915.915,0,1,1,0,1.83h-19.019a8.075,8.075,0,0,0-8.065,8.065v7.059A.913.913,0,0,1,1240.415,228.291Z" transform="translate(-915.463 -155.42)" fill="#91b3fa"/>
      <path id="Path_1964" data-name="Path 1964" d="M1029.265,286.072a11.335,11.335,0,0,1,11.322-10.792h210.356a15.547,15.547,0,0,1,15.319,12.9l.178,1.027a13.351,13.351,0,0,1-13.157,15.631h-215.81a8.682,8.682,0,0,1-8.671-9.1Z" transform="translate(-759.839 -203.316)" fill="#26538f"/>
      <path id="Path_1966" data-name="Path 1966" d="M615.041,2711.61s-1.378,7.8-2.055,15.531a5.323,5.323,0,0,0,5.093,5.767c10.29.429,32.3,1.263,40.194.91a1.733,1.733,0,0,0,1.524-2.374,3.87,3.87,0,0,0-1.984-2.091l-36.338-16.708Z" transform="translate(-452.722 -2002.726)" fill="#42495b"/>
      <path id="Path_1967" data-name="Path 1967" d="M616.58,2689.993l1.108,9.335s6.368,2.965,10.718-.374l-2.635-10.4Z" transform="translate(-455.39 -1985.695)" fill="url(#linear-gradient-2)"/>
      <path id="Path_1968" data-name="Path 1968" d="M538.2,2022.685c-.478,2.437-2.57,121.66,10.175,175.087a1.812,1.812,0,0,1-1.064,2.11,31.6,31.6,0,0,1-10.379,2.107,3.119,3.119,0,0,1-3.1-2.24c-3.644-12.4-21.1-74.506-23.377-133.832-2.544-66.295,0-2.259,0-2.259l1.493-40.978Z" transform="translate(-376.175 -1493.901)" fill="#42495b"/>
      <path id="Path_1969" data-name="Path 1969" d="M448.548,2727.18s-2.193,3.942-4.319,14.412a3.244,3.244,0,0,0,2.857,3.888c3.4.334,8.627.766,12.81.735a3.237,3.237,0,0,0,3.205-3.61c-.465-3.822-1.911-10.094-6.376-14.98Z" transform="translate(-328.046 -2014.226)" fill="#42495b"/>
      <path id="Path_1970" data-name="Path 1970" d="M453.57,2679.7l2.588,14.117s2.559,1.9,7.621.523l-1.234-15.189Z" transform="translate(-334.995 -1978.752)" fill="url(#linear-gradient-3)"/>
      <path id="Path_1971" data-name="Path 1971" d="M415.484,2018.07c-10.423,62.9,2.261,155.47,6.536,173.587a2.831,2.831,0,0,0,2.282,2.146,18.992,18.992,0,0,0,8.151-.327,2.583,2.583,0,0,0,1.861-2.384c.575-14.64-.458-104.571,9.254-140.106a8.066,8.066,0,0,1,3.114-4.444l18.849-13.4,1.446-21.662Z" transform="translate(-303.902 -1485.629)" fill="#42495b"/>
      <path id="Path_1972" data-name="Path 1972" d="M482.242,1566.348c-31.235-.523-65.7,8.2-65.7,8.2-9.312,54.327-1.629,116.988-1.629,116.988,24.182,6.342,51.459-3.877,51.459-3.877,4.018-22.707,22.77-86.613,22.77-86.613a102.872,102.872,0,0,0,38.189-12.12c-7.9-9.15-11.62-20.8-13.239-27.688C503.051,1564.672,491.875,1566.508,482.242,1566.348Z" transform="translate(-304.244 -1153.093)" fill="#df6659"/>
      <path id="Path_1973" data-name="Path 1973" d="M863.12,1398.1a5.974,5.974,0,0,0-6.951-1.953c-4.6,19.416-28.7,35.159-53.459,42.853,1.618,6.886,5.341,18.535,13.239,27.688C857.04,1443.584,863.12,1398.1,863.12,1398.1Z" transform="translate(-592.861 -1030.854)" fill="url(#linear-gradient-4)"/>
      <path id="Path_1974" data-name="Path 1974" d="M1013.39,1314.133c.322,1.022-3.4,2.575-5.584-1.6-.078-2-1.307-10.572-.1-12.2,6.368-8.679,18.713-19.562,18.713-19.562a2.931,2.931,0,0,1,.366,4.081l-5.987,6.24c1.252,2.261,2.779,4.183,3.5,6.912a8.366,8.366,0,0,1-.837,6.175,72.313,72.313,0,0,1-3.84,6.274A8.279,8.279,0,0,1,1013.39,1314.133Z" transform="translate(-743.875 -945.945)" fill="url(#linear-gradient-5)"/>
      <path id="Path_1975" data-name="Path 1975" d="M1029,1335.73l-5.459,4.627-1.712,4.6,4.865,5.4s1.636-9.15,2.852-11.116S1030.133,1336.308,1029,1335.73Z" transform="translate(-754.697 -986.537)" fill="url(#linear-gradient-6)"/>
      <path id="Path_1976" data-name="Path 1976" d="M345.524,1642.394l-11.979-30.244s-29.178,19.824-33.985,44.965a68.8,68.8,0,0,1,25.358,6.8C327.091,1652.036,345.524,1642.394,345.524,1642.394Z" transform="translate(-221.247 -1190.694)" fill="#df6659"/>
      <path id="Path_1977" data-name="Path 1977" d="M369.187,1797.866s-32.757,18.514-43.81,2.706a12.418,12.418,0,0,1-2.277-9.655,68.843,68.843,0,0,0-25.358-6.8,34.725,34.725,0,0,0,3.77,23.79c19.361,35.415,72.015-1.956,72.015-1.956Z" transform="translate(-219.413 -1317.706)" fill="url(#linear-gradient-7)"/>
      <path id="Path_1978" data-name="Path 1978" d="M557.658,1735.278l17.879-62.431a1.83,1.83,0,0,1,1.54-1.307c3.239-.376,12.624-1.438,23.46-2.353,13.053-1.1,28.213-2,37.271-1.236a1.83,1.83,0,0,1,1.493,2.614c-5.153,10.423-26.339,52.808-36.95,66.7a1.83,1.83,0,0,1-1.474.724L559.4,1737.6a1.83,1.83,0,0,1-1.741-2.324Z" transform="translate(-411.821 -1231.697)" fill="#26538f"/>
      <path id="Path_1979" data-name="Path 1979" d="M724.551,1646.607l12.962-2.159a.928.928,0,0,1,1.046,1.208l-1.3,3.893a.928.928,0,0,1-.761.633l-12.467,1.66a.931.931,0,0,1-1.027-1.135l.784-3.4A.926.926,0,0,1,724.551,1646.607Z" transform="translate(-533.972 -1214.537)" fill="#91b3fa"/>
      <path id="Path_1980" data-name="Path 1980" d="M691.785,1668.535l1.069-5.561a1.286,1.286,0,0,1,1.132-1.046l26.179-2.656a1.286,1.286,0,0,1,1.38,1.568l-1.665,6.93a1.286,1.286,0,0,1-1.187.983l-25.581,1.289a1.286,1.286,0,0,1-1.328-1.508Z" transform="translate(-510.92 -1225.492)" fill="#91b3fa"/>
      <path id="Path_1981" data-name="Path 1981" d="M569.5,1808.453s-2.491-10.24-1.487-13.871,2.951-8.305,9.44-7.268a94.8,94.8,0,0,1,14.141,3.772s-.387,4.732-5.317,3.205l3.056,2.353s-.437,3.788-4.6,1.765l2.844,3.137a3.317,3.317,0,0,1-4.855,1.116C579.658,1800.668,578.194,1809.688,569.5,1808.453Z" transform="translate(-419.346 -1319.957)" fill="url(#linear-gradient-8)"/>
      <path id="Path_1982" data-name="Path 1982" d="M531.614,1483.78l-9.934,28.741a1.046,1.046,0,0,0,.471,1.247c2.711,1.5,12.47,5.827,24.234-1.631a4.873,4.873,0,0,0,2.243-3.482l3.221-24.875Z" transform="translate(-385.258 -1095.883)" fill="url(#linear-gradient-9)"/>
      <path id="Path_1983" data-name="Path 1983" d="M570.593,1382s10.914,20.543,9.516,28.841-14.925,7.7-26.736.965l-8.253-22.182Z" transform="translate(-402.612 -1020.711)" fill="url(#linear-gradient-10)"/>
      <path id="Path_1984" data-name="Path 1984" d="M511.46,1358.68a.847.847,0,0,0,.369-1.239,22.152,22.152,0,0,1-3.035-6.447s-1.963-1.257,4.993-2.923,17.327-4.248,19.508-10.17c2.125-5.772-3.459-20.287-12.371-8.721a.847.847,0,0,1-1.341,0c-1.461-1.9-5.3-5.848-10.632-3.456-4.991,2.238-5.55,5.9-5.49,7.738a.842.842,0,0,1-1,.86c-2.523-.481-8.575-.894-11.4,5.317-2.327,5.114-.816,8.01.562,9.427a.844.844,0,0,1-.361,1.4c-1.657.507-3.8,1.914-3.584,5.8.3,5.37,6.3,4.9,8.01,4.653a.839.839,0,0,1,.75.261c1.467,1.623,8.07,8.51,15.218,9.341a.855.855,0,0,0,.894-1.129l-3.093-8.99a.85.85,0,0,1,.46-1.046Z" transform="translate(-360.175 -978.487)" fill="#2d313d"/>
      <path id="Path_1985" data-name="Path 1985" d="M559.8,1451.732s-7.77-5.331-8.337-.842,7,6.5,10.745,4.828Z" transform="translate(-407.275 -1070.264)" fill="url(#linear-gradient-11)"/>
      <path id="Path_1986" data-name="Path 1986" d="M1992.6,1434.348a1.221,1.221,0,0,1,2.256.24c1.093,3.937,3.741,10.807,9.294,13.246.28.123.546.246.8.371a2.833,2.833,0,0,0-.348-2.554c-1.728-2.64,1.391-6.245,1.391-6.245a8.029,8.029,0,0,0,2.614,5.174c2.078,1.723,3.074,5.555,1.655,8.7-3.006,11.678-7.508,27.123,10.028,38.406s42.231-21.3,42.231-21.3l-12.256,38.858s-18.919,13.96-40.926-5.67-7.419-48.2-7.419-48.2S1985.132,1448.606,1992.6,1434.348Z" transform="translate(-1470.267 -1058.892)" fill="url(#linear-gradient-12)"/>
      <path id="Path_1987" data-name="Path 1987" d="M2253.879,1305.455s-5.082-22.791,21.024-16.757c0,0,12.671-2.071,13.315,9.89,0,0,8.169,5.383,2.188,15.733,0,0,24.273-9.377,34.851,11.9s.854,32.984-9.335,36.032c0,0,8.256,4.146,4.347,13.508s-23.7,15.96-35.395,4.575c0,0-33.269,4.4-32.6-19.1,0,0-15.474-9.992.784-29.413S2253.879,1305.455,2253.879,1305.455Z" transform="translate(-1658.557 -951.049)" fill="#2d313d"/>
      <path id="Path_1988" data-name="Path 1988" d="M2214.161,1553.766c5.247-1.569,20.519-4.476,35.047,8.933a8.993,8.993,0,0,1,2.594,8.964c-3.9,14.378-14.2,56.805-5.171,75.171,0,0-15.908,17.536-33.261,3.4,0,0-7.788-33.936-17.986-48.834-7.043-10.284,11.241-38.623,15.85-45.47A5.419,5.419,0,0,1,2214.161,1553.766Z" transform="translate(-1620.275 -1146.539)" fill="#df6659"/>
      <path id="Path_1989" data-name="Path 1989" d="M2297.787,1448.55s7.756,21.944,8.339,31.633a16.594,16.594,0,0,1-16.653-2.682s-.847-21.918-2.073-25.842Z" transform="translate(-1689.414 -1069.863)" fill="url(#linear-gradient-13)"/>
      <path id="Path_1990" data-name="Path 1990" d="M2251.93,1333.643s-20.292,28.4-8.162,36.647,26.574-11.934,26.574-11.934,4.706-15.542-.217-20.815S2251.93,1333.643,2251.93,1333.643Z" transform="translate(-1654.334 -984.877)" fill="url(#linear-gradient-14)"/>
      <path id="Path_1991" data-name="Path 1991" d="M2291.573,1307.078s-9.32,2.209-10.627,6.426,13.218,8.128,17.288,8.321l3.281,17.019s9.694-16.012,5.853-25.259S2291.573,1307.078,2291.573,1307.078Z" transform="translate(-1684.586 -965.096)" fill="#2d313d"/>
      <path id="Path_1992" data-name="Path 1992" d="M2341.29,1405.938s7.9-9.15,11.04-3.184-7.108,10.441-10.658,7.513Z" transform="translate(-1729.216 -1034.547)" fill="url(#linear-gradient-15)"/>
      <path id="Path_1993" data-name="Path 1993" d="M2178.81,2199.29c.06,1.542-2.646,13.761-4.117,20.281a10.718,10.718,0,0,0,1.156,7.7l50.978,85.808a11.738,11.738,0,0,1,1.338,3.338c.933,4.026,2.876,13.895,1.862,22.872l-2.638,5.49,11.406-2.591,2.481-30.631-3.229-1.969a15.36,15.36,0,0,1-6.207-7.268c-4.609-11.2-16.056-39.7-19.008-53.592-3.354-15.79-20.885-28.613-20.885-28.613l3.08-7.281Z" transform="translate(-1605.976 -1624.34)" fill="url(#linear-gradient-16)"/>
      <path id="Path_1994" data-name="Path 1994" d="M2391.45,2642.17s-6.159-9.767-6.883-13.568-2.742-10.512-6.536-8.491c0,0-1.791,18.464-1.174,25.68s-8.156,6.983-8.156,6.983a8.183,8.183,0,0,0-4.183,2.112,2.053,2.053,0,0,0,1.378,3.453,49.343,49.343,0,0,0,12.219-.693,3.739,3.739,0,0,0,3.017-3.448l1.263-21.251,7.77,9.809Z" transform="translate(-1745.95 -1934.874)" fill="#42495b"/>
      <path id="Path_1995" data-name="Path 1995" d="M2277.726,2245.726s1.8,76.752,2.042,87.654-1.72,35.06-12.648,42.28l4.753,3.519a63.473,63.473,0,0,0,11.748-14.771c6.536-10.92,8.5-12.914,8.5-12.914l-2.165-4.444a9.731,9.731,0,0,1-.784-6.248c2.353-11.429,10.235-49.446,12.384-57.634,2.538-9.673,2.719-22.569-6.107-33.371S2277.726,2245.726,2277.726,2245.726Z" transform="translate(-1674.436 -1657.106)" fill="url(#linear-gradient-17)"/>
      <path id="Path_1996" data-name="Path 1996" d="M2272.717,2682.114a.669.669,0,0,0,.674-.575c.366-2.559,1.88-12.81,3.119-15.474,1.417-3.043,6.052-15.848,0-16.935,0,0-15.061,22-17.949,24.966a5.674,5.674,0,0,1-6.536,1.046,10.877,10.877,0,0,0-4.941,3.545,1.995,1.995,0,0,0,1.568,3.205l10.144.1a7.142,7.142,0,0,0,6.69-4.5c1.785-4.46,4.852-11,8.426-13.9l-1.859,17.777a.68.68,0,0,0,.664.748Z" transform="translate(-1659.336 -1956.58)" fill="#42495b"/>
      <path id="Path_1997" data-name="Path 1997" d="M2194.232,1880.944s2.287,7.286-1.224,19.285l-21.785,76.075a2.353,2.353,0,0,0,1.475,2.876c6.515,2.337,27.933,8.948,57.171,6.933a3.323,3.323,0,0,0,3.028-2.585c1.926-8.671,8.5-38.257,9.853-44.338,5.158-23.162,10.914-48.144-14.415-63.249C2216.66,1880.923,2205.771,1883.866,2194.232,1880.944Z" transform="translate(-1603.54 -1385.522)" fill="url(#linear-gradient-18)"/>
      <path id="Path_1998" data-name="Path 1998" d="M2355.066,1597.832s24.783,20.595,30.932,48.74-36.216,31.136-36.216,31.136-5.751-6.423-12.577-4.133-.523-11.207,7.458-11.173,4.29,6.353,15.589,1.234c11.011-4.985,17.813-20.41-10.274-43.786a12.717,12.717,0,0,1-3.709-5.053C2340.813,1601.061,2345.14,1592.057,2355.066,1597.832Z" transform="translate(-1724.052 -1178.807)" fill="url(#linear-gradient-19)"/>
    </g>
  </g>
</svg>
