<svg id="_001-twitter-logo-silhouette" data-name="001-twitter-logo-silhouette" xmlns="http://www.w3.org/2000/svg" xmlns:xlink="http://www.w3.org/1999/xlink" width="17.719" height="14.013" viewBox="0 0 17.719 14.013">
  <defs>
    <linearGradient id="linear-gradient" x1="1.119" y1="0.577" x2="0.5" y2="0.577" gradientUnits="objectBoundingBox">
      <stop offset="0" stop-color="#9cbee2"/>
      <stop offset="1" stop-color="#26538f"/>
    </linearGradient>
  </defs>
  <g id="Group_1280" data-name="Group 1280" transform="translate(0 0)">
    <path id="Path_1202" data-name="Path 1202" d="M17.719,1.658a7.413,7.413,0,0,1-2.087.557,3.572,3.572,0,0,0,1.6-1.957,7.45,7.45,0,0,1-2.31.859A3.671,3.671,0,0,0,12.267,0,3.588,3.588,0,0,0,8.632,3.538a3.459,3.459,0,0,0,.094.806A10.415,10.415,0,0,1,1.235.647,3.441,3.441,0,0,0,.743,2.425,3.514,3.514,0,0,0,2.359,5.37,3.71,3.71,0,0,1,.713,4.926v.044a3.568,3.568,0,0,0,2.915,3.47,3.776,3.776,0,0,1-.958.124A3.581,3.581,0,0,1,1.986,8.5a3.626,3.626,0,0,0,3.395,2.458A7.42,7.42,0,0,1,.867,12.469,7.933,7.933,0,0,1,0,12.42a10.478,10.478,0,0,0,5.572,1.592A10.128,10.128,0,0,0,15.913,3.944L15.9,3.486A7.156,7.156,0,0,0,17.719,1.658Z" fill="url(#linear-gradient)"/>
  </g>
</svg>
