<svg id="Layer_2" data-name="Layer 2" xmlns="http://www.w3.org/2000/svg" width="36" height="36" viewBox="0 0 36 36">
  <g id="invisible_box" data-name="invisible box">
    <rect id="Rectangle_179" data-name="Rectangle 179" width="36" height="36" fill="none"/>
  </g>
  <g id="Q3_icons" data-name="Q3 icons" transform="translate(6.738 7.501)">
    <path id="Path_2001" data-name="Path 2001" d="M18.371,10.45l-8.925,9a1.425,1.425,0,0,0,0,2.1l8.925,9a1.575,1.575,0,0,0,2.025.15,1.425,1.425,0,0,0,.15-2.25L14.1,22H30a1.5,1.5,0,0,0,0-3H14.1l6.45-6.45a1.425,1.425,0,0,0-.15-2.25A1.575,1.575,0,0,0,18.371,10.45Z" transform="translate(-8.985 -10.001)" fill="#26538f"/>
  </g>
</svg>
