<svg id="envelope" xmlns="http://www.w3.org/2000/svg" width="19.073" height="14.157" viewBox="0 0 19.073 14.157">
  <g id="Group_1292" data-name="Group 1292" transform="translate(0 0)">
    <path id="Path_1214" data-name="Path 1214" d="M1.831,59.184q.362.241,2.182,1.433T6.8,62.451q.106.071.452.307t.575.382q.229.146.554.327a3.3,3.3,0,0,0,.612.271,1.775,1.775,0,0,0,.532.09h.021a1.777,1.777,0,0,0,.532-.09,3.3,3.3,0,0,0,.612-.271q.325-.181.553-.327t.575-.382q.346-.237.452-.307l4.981-3.268a4.922,4.922,0,0,0,1.3-1.237,2.557,2.557,0,0,0,.522-1.518,1.5,1.5,0,0,0-.506-1.136,1.694,1.694,0,0,0-1.2-.473H1.7a1.56,1.56,0,0,0-1.261.523A1.956,1.956,0,0,0,0,56.65a2.277,2.277,0,0,0,.585,1.373A5.155,5.155,0,0,0,1.831,59.184Z" transform="translate(0 -54.82)" fill="#fff"/>
    <path id="Path_1215" data-name="Path 1215" d="M18.008,185.312q-3.491,2.232-5.3,3.469-.607.422-.984.659a6.221,6.221,0,0,1-1.006.483,3.215,3.215,0,0,1-1.171.246H9.526a3.216,3.216,0,0,1-1.171-.246,6.224,6.224,0,0,1-1.006-.483q-.378-.236-.984-.659-1.437-1-5.29-3.469A5.562,5.562,0,0,1,0,184.437v7.983a1.507,1.507,0,0,0,.5,1.136,1.689,1.689,0,0,0,1.2.473H17.37a1.689,1.689,0,0,0,1.2-.473,1.507,1.507,0,0,0,.5-1.136v-7.983A5.784,5.784,0,0,1,18.008,185.312Z" transform="translate(0 -179.872)" fill="#fff"/>
  </g>
</svg>
