<svg xmlns="http://www.w3.org/2000/svg" width="20.148" height="20.148" viewBox="0 0 20.148 20.148">
  <g id="instagram" transform="translate(0 20.148) rotate(-90)">
    <g id="Group_1285" data-name="Group 1285" transform="translate(0 0)">
      <g id="Group_1284" data-name="Group 1284">
        <path id="Path_1209" data-name="Path 1209" d="M14.3,0H5.853A5.859,5.859,0,0,0,0,5.853V14.3a5.859,5.859,0,0,0,5.853,5.853H14.3A5.859,5.859,0,0,0,20.148,14.3V5.853A5.859,5.859,0,0,0,14.3,0Zm4.279,14.3A4.283,4.283,0,0,1,14.3,18.574H5.853A4.283,4.283,0,0,1,1.574,14.3V5.853A4.283,4.283,0,0,1,5.853,1.574H14.3a4.284,4.284,0,0,1,4.279,4.279Z" fill="#fff"/>
      </g>
    </g>
    <g id="Group_1287" data-name="Group 1287" transform="translate(4.644 4.644)">
      <g id="Group_1286" data-name="Group 1286">
        <path id="Path_1210" data-name="Path 1210" d="M5.431,0a5.431,5.431,0,1,0,5.431,5.431A5.437,5.437,0,0,0,5.431,0Zm0,9.287A3.857,3.857,0,1,1,9.287,5.431,3.861,3.861,0,0,1,5.431,9.287Z" fill="#fff"/>
      </g>
    </g>
    <g id="Group_1289" data-name="Group 1289" transform="translate(14.796 3.778)">
      <g id="Group_1288" data-name="Group 1288">
        <ellipse id="Ellipse_91" data-name="Ellipse 91" cx="0.787" cy="0.787" rx="0.787" ry="0.787" fill="#fff"/>
      </g>
    </g>
  </g>
</svg>
