<svg id="old-handphone" xmlns="http://www.w3.org/2000/svg" width="17.884" height="17.891" viewBox="0 0 17.884 17.891">
  <path id="Path_1213" data-name="Path 1213" d="M5.619,5.923,1.488,1.789l1.6-1.6A.634.634,0,0,1,3.981.18L7.2,3.4a.637.637,0,0,1,0,.9l-.7.7-.656.656A1.807,1.807,0,0,0,5.619,5.923Zm3.4,6.733c-.676-.582-1.325-1.2-1.955-1.829S5.819,9.547,5.236,8.868a2.035,2.035,0,0,1-.321-2.022L.674,2.6c-.987,1.014-.861,3.53.22,5.74a15.913,15.913,0,0,0,1.689,2.64A23.657,23.657,0,0,0,4.6,13.291a22.536,22.536,0,0,0,2.3,2.028A15.918,15.918,0,0,0,9.541,17c2.213,1.08,4.73,1.2,5.744.211l-4.241-4.241A2.044,2.044,0,0,1,9.018,12.655Zm8.687,1.252-3.218-3.219a.641.641,0,0,0-.9,0h0l-.707.706-.652.655a1.979,1.979,0,0,1-.262.217L16.1,16.4q.8-.8,1.6-1.6A.63.63,0,0,0,17.705,13.907Z" transform="translate(-0.003 0)" fill="#fff"/>
</svg>
