<svg id="_001-twitter-logo-silhouette" data-name="001-twitter-logo-silhouette" xmlns="http://www.w3.org/2000/svg" width="27.89" height="22.056" viewBox="0 0 27.89 22.056">
  <g id="Group_1280" data-name="Group 1280" transform="translate(0 0)">
    <path id="Path_1202" data-name="Path 1202" d="M27.89,2.61a11.668,11.668,0,0,1-3.285.877A5.623,5.623,0,0,0,27.119.407,11.726,11.726,0,0,1,23.484,1.76,5.778,5.778,0,0,0,19.308,0a5.648,5.648,0,0,0-5.722,5.569,5.445,5.445,0,0,0,.148,1.269A16.393,16.393,0,0,1,1.943,1.018a5.417,5.417,0,0,0-.774,2.8A5.53,5.53,0,0,0,3.714,8.453a5.84,5.84,0,0,1-2.592-.7v.07a5.616,5.616,0,0,0,4.589,5.462,5.943,5.943,0,0,1-1.508.2,5.637,5.637,0,0,1-1.077-.1A5.707,5.707,0,0,0,8.47,17.246a11.678,11.678,0,0,1-7.105,2.381A12.485,12.485,0,0,1,0,19.55a16.492,16.492,0,0,0,8.77,2.506A15.942,15.942,0,0,0,25.047,6.208l-.019-.721A11.265,11.265,0,0,0,27.89,2.61Z" fill="#fff"/>
  </g>
</svg>
